<svg xmlns="http://www.w3.org/2000/svg" viewBox="0 0 140 1440"><g xmlns="http://www.w3.org/2000/svg" transform="matrix(0 -1 1 0 -0 1440)"><defs><linearGradient id="sw-gradient-0" x1="0" x2="0" y1="1" y2="0"><stop stop-color="rgba(63.031, 148.324, 225.259, 1)" offset="0%" /><stop stop-color="rgba(120.191, 165.72, 227.536, 1)" offset="100%" /></linearGradient></defs><path style="transform:translate(0, 0px); opacity:1" fill="url(#sw-gradient-0)" d="M0,0L18.5,2.3C36.9,5,74,9,111,23.3C147.7,37,185,61,222,67.7C258.5,75,295,65,332,53.7C369.2,42,406,28,443,35C480,42,517,70,554,88.7C590.8,107,628,117,665,119C701.5,121,738,117,775,112C812.3,107,849,103,886,84C923.1,65,960,33,997,32.7C1033.8,33,1071,65,1108,74.7C1144.6,84,1182,70,1218,70C1255.4,70,1292,84,1329,88.7C1366.2,93,1403,89,1440,74.7C1476.9,61,1514,37,1551,23.3C1587.7,9,1625,5,1662,7C1698.5,9,1735,19,1772,39.7C1809.2,61,1846,93,1883,88.7C1920,84,1957,42,1994,25.7C2030.8,9,2068,19,2105,39.7C2141.5,61,2178,93,2215,95.7C2252.3,98,2289,70,2326,65.3C2363.1,61,2400,79,2437,81.7C2473.8,84,2511,70,2548,67.7C2584.6,65,2622,75,2640,79.3L2658.5,84L2658.5,140L2640,140C2621.5,140,2585,140,2548,140C2510.8,140,2474,140,2437,140C2400,140,2363,140,2326,140C2289.2,140,2252,140,2215,140C2178.5,140,2142,140,2105,140C2067.7,140,2031,140,1994,140C1956.9,140,1920,140,1883,140C1846.2,140,1809,140,1772,140C1735.4,140,1698,140,1662,140C1624.6,140,1588,140,1551,140C1513.8,140,1477,140,1440,140C1403.1,140,1366,140,1329,140C1292.3,140,1255,140,1218,140C1181.5,140,1145,140,1108,140C1070.8,140,1034,140,997,140C960,140,923,140,886,140C849.2,140,812,140,775,140C738.5,140,702,140,665,140C627.7,140,591,140,554,140C516.9,140,480,140,443,140C406.2,140,369,140,332,140C295.4,140,258,140,222,140C184.6,140,148,140,111,140C73.8,140,37,140,18,140L0,140Z" /></g></svg>