<svg version="1.1" id="svg1" inkscape:version="1.4.2 (ebf0e940, 2025-05-08)" sodipodi:docname="sparro.svg" inkscape:export-filename="icon_16.png" inkscape:export-xdpi="4.0360303" inkscape:export-ydpi="4.0360303" xmlns:inkscape="http://www.inkscape.org/namespaces/inkscape" xmlns:sodipodi="http://sodipodi.sourceforge.net/DTD/sodipodi-0.dtd" xmlns="http://www.w3.org/2000/svg" xmlns:svg="http://www.w3.org/2000/svg" viewBox="48.78 16.5 100.73 101">
  <sodipodi:namedview id="namedview1" pagecolor="#505050" bordercolor="#ffffff" borderopacity="1" inkscape:showpageshadow="0" inkscape:pageopacity="0" inkscape:pagecheckerboard="1" inkscape:deskcolor="#505050" inkscape:document-units="mm" inkscape:zoom="5.6568543" inkscape:cx="240.4163" inkscape:cy="97.138794" inkscape:window-width="1376" inkscape:window-height="860" inkscape:window-x="116" inkscape:window-y="31" inkscape:window-maximized="0" inkscape:current-layer="g182"/>
  <defs id="defs1">
    <linearGradient id="linearGradient8" inkscape:swatch="gradient">
      <stop style="stop-color:#4939d9;stop-opacity:1;" offset="0" id="stop8"/>
      <stop style="stop-color:#000000;stop-opacity:0;" offset="1" id="stop9"/>
    </linearGradient>
  </defs>
  <g inkscape:label="Layer 1" inkscape:groupmode="layer" id="g182">
    <path style="display:inline;opacity:1;fill:#658c58;fill-opacity:1;stroke:none;stroke-width:0.0646643;stroke-linecap:round;stroke-linejoin:round;stroke-opacity:0" d="m 148.07354,115.08825 c 0,0 -93.640818,-26.364065 -95.448845,-24.959399 -2.770707,2.152578 22.005181,19.151359 44.248754,24.846699 19.202101,4.91658 51.200091,0.11275 51.200091,0.11275 z" id="path178" sodipodi:nodetypes="csscc" inkscape:label="path3"/>
    <path style="display:inline;opacity:1;fill:#658c58;fill-opacity:1;stroke:none;stroke-width:0.112696;stroke-linecap:round;stroke-linejoin:round;stroke-dasharray:none;stroke-opacity:0" d="m 148.07354,113.81983 c 0,0 -83.870747,-102.001368 -85.468401,-97.149757 -2.448323,7.434846 18.00513,55.372135 37.660561,75.043436 16.96784,16.981511 47.80784,22.106321 47.80784,22.106321 z" id="path179" sodipodi:nodetypes="cssc" inkscape:label="path3"/>
    <path style="display:inline;opacity:1;fill:#658c58;fill-opacity:1;stroke:none;stroke-width:0.106872;stroke-linecap:round;stroke-linejoin:round;stroke-opacity:0" d="m 148.07354,114.16533 c 0,0 -93.073872,-82.560136 -94.846837,-78.647437 -2.716976,5.996009 27.706899,54.463734 49.519117,70.328117 18.82971,13.69515 45.32772,8.31932 45.32772,8.31932 z" id="path180" sodipodi:nodetypes="cssc" inkscape:label="path3"/>
    <path style="display:inline;opacity:1;fill:#658c58;fill-opacity:1;stroke:none;stroke-width:0.0945272;stroke-linecap:round;stroke-linejoin:round;stroke-opacity:0" d="m 147.08135,113.86357 c 0,0 -96.069704,-61.273092 -97.918635,-58.337885 -2.833394,4.498057 30.606993,44.996945 53.353825,56.898015 19.63652,10.27376 44.56481,1.43987 44.56481,1.43987 z" id="path181" sodipodi:nodetypes="cssc" inkscape:label="path3"/>
    <path style="display:inline;opacity:1;fill:#658c58;fill-opacity:1;stroke:none;stroke-width:0.0799398;stroke-linecap:round;stroke-linejoin:round;stroke-opacity:0" d="m 146.05901,113.73089 c 0,0 -95.229318,-42.282704 -97.078249,-40.183504 -2.833392,3.216912 29.515271,32.073774 52.262089,40.585154 19.63652,7.34757 44.81616,-0.40165 44.81616,-0.40165 z" id="path182" sodipodi:nodetypes="cssc" inkscape:label="path3"/>
  </g>
  <g inkscape:label="INSIDE" inkscape:groupmode="layer" id="layer1" transform="matrix(0.6368106,0,0,0.6368106,41.253628,37.663678)" style="display:inline;fill:#fbfbfb;fill-opacity:1">
    <path style="display:inline;opacity:1;fill:#bbc863;fill-opacity:1;stroke:none;stroke-width:0.0850898;stroke-linecap:round;stroke-linejoin:round;stroke-opacity:0" d="m 169.98138,122.16402 c 0,0 -123.101462,-33.643461 -125.420978,-31.7476 -3.554532,2.90531 24.382468,24.07806 52.649832,32.44011 20.332366,6.0147 72.771146,-0.69251 72.771146,-0.69251 z" id="path4" sodipodi:nodetypes="cssc" inkscape:label="path3"/>
    <path style="display:inline;opacity:1;fill:#bbc863;fill-opacity:1;stroke:none;stroke-width:0.148295;stroke-linecap:round;stroke-linejoin:round;stroke-dasharray:none;stroke-opacity:0" d="m 169.98038,122.16292 c 0,0 -108.361003,-139.520838 -110.410628,-132.972673 -3.140949,10.03472771 22.685437,83.242313 47.901338,109.792453 21.768,22.91976 62.50929,23.18022 62.50929,23.18022 z" id="path5" sodipodi:nodetypes="cssc" inkscape:label="path3"/>
    <path style="display:inline;opacity:1;fill:#bbc863;fill-opacity:1;stroke:none;stroke-width:0.140629;stroke-linecap:round;stroke-linejoin:round;stroke-opacity:0" d="m 169.21697,121.2784 c 0,0 -119.404263,-111.4305024 -121.678799,-106.149577 -3.485602,8.092745 33.533546,73.594089 61.516409,95.006067 24.15659,18.48419 60.16239,11.14351 60.16239,11.14351 z" id="path6" sodipodi:nodetypes="cssc" inkscape:label="path3"/>
    <path style="display:inline;opacity:1;fill:#bbc863;fill-opacity:1;stroke:none;stroke-width:0.124386;stroke-linecap:round;stroke-linejoin:round;stroke-opacity:0" d="m 169.21697,121.76387 c 0,0 -124.52049,-83.592372 -126.892481,-79.630756 -3.634954,6.070975 35.67237,56.065825 64.854231,72.128566 25.19166,13.86638 62.03825,7.50219 62.03825,7.50219 z" id="path7" sodipodi:nodetypes="cssc" inkscape:label="path3"/>
    <path style="display:inline;opacity:1;fill:#bbc863;fill-opacity:1;stroke:none;stroke-width:0.10519;stroke-linecap:round;stroke-linejoin:round;stroke-opacity:0" d="m 169.21697,122.1791 c 0,0 -127.663486,-56.926203 -130.03548,-54.092937 -3.634951,4.341829 29.957828,34.953957 59.139689,46.441677 25.191661,9.91695 70.895791,7.65126 70.895791,7.65126 z" id="path8" sodipodi:nodetypes="cssc" inkscape:label="path3"/>
  </g>
</svg>